<svg xmlns="http://www.w3.org/2000/svg" viewBox="0 0 100.71 112.82"><defs><style>.cls-1{fill:#86c3d0;}.cls-2{fill:#fff;}.cls-3{font-size:12px;fill:#1d1d1b;font-family:MyriadPro-Regular, Myriad Pro;}.cls-4{letter-spacing:-0.05em;}.cls-5{letter-spacing:0em;}.cls-6{letter-spacing:-0.01em;}.cls-7{letter-spacing:0em;}.cls-8{letter-spacing:0em;}</style></defs><g id="API"><path class="cls-1" d="M50.35,13.37a43,43,0,1,0,43.05,43A43,43,0,0,0,50.35,13.37Z"/><path class="cls-2" d="M43.37,50H30.49a3.62,3.62,0,0,1-3.62-3.61v-9a3.62,3.62,0,0,1,3.62-3.61H43.37A3.61,3.61,0,0,1,47,37.41v9A3.61,3.61,0,0,1,43.37,50ZM30.49,35.61a1.81,1.81,0,0,0-1.81,1.8v9a1.81,1.81,0,0,0,1.81,1.8H43.37a1.81,1.81,0,0,0,1.8-1.8v-9a1.81,1.81,0,0,0-1.8-1.8Z"/><path class="cls-2" d="M70.22,75.45H57.34a3.61,3.61,0,0,1-3.61-3.61v-9a3.61,3.61,0,0,1,3.61-3.61H70.22a3.61,3.61,0,0,1,3.61,3.61v9A3.61,3.61,0,0,1,70.22,75.45ZM57.34,61a1.82,1.82,0,0,0-1.81,1.81v9a1.81,1.81,0,0,0,1.81,1.8H70.22A1.81,1.81,0,0,0,72,71.84v-9A1.82,1.82,0,0,0,70.22,61Z"/><path class="cls-2" d="M66.15,79H61.42a.91.91,0,1,1,0-1.81h4.73a.91.91,0,0,1,0,1.81Z"/><path class="cls-2" d="M63.78,46.55a4.64,4.64,0,1,1,4.64-4.64A4.64,4.64,0,0,1,63.78,46.55Zm0-7.47a2.83,2.83,0,1,0,2.83,2.83A2.83,2.83,0,0,0,63.78,39.08Z"/><path class="cls-2" d="M36.93,73.4a4.64,4.64,0,1,1,4.63-4.64A4.64,4.64,0,0,1,36.93,73.4Zm0-7.47a2.84,2.84,0,1,0,2.83,2.83A2.83,2.83,0,0,0,36.93,65.93Z"/><path class="cls-2" d="M60.05,42.81h-14a.9.9,0,1,1,0-1.8h14a.9.9,0,0,1,0,1.8Z"/><path class="cls-2" d="M36.93,65.93A.9.9,0,0,1,36,65V49.12a.91.91,0,1,1,1.81,0V65A.9.9,0,0,1,36.93,65.93Z"/><path class="cls-2" d="M54.63,69.67h-14a.91.91,0,0,1,0-1.81h14a.91.91,0,0,1,0,1.81Z"/><path class="cls-2" d="M63.78,61a.9.9,0,0,1-.9-.9V45.64a.9.9,0,1,1,1.8,0V60.13A.9.9,0,0,1,63.78,61Z"/></g><g id="HOSTING"><text class="cls-3" transform="translate(17.93 -4.98)"><tspan class="cls-4">T</tspan><tspan class="cls-5" x="5.42" y="0">r</tspan><tspan x="9.29" y="0">ans</tspan><tspan class="cls-6" x="26.48" y="0">f</tspan><tspan x="29.83" y="0">o</tspan><tspan class="cls-7" x="36.42" y="0">r</tspan><tspan class="cls-8" x="40.39" y="0">m Headers</tspan></text></g></svg>